<svg width="49" height="48" viewBox="0 0 49 48" fill="none" xmlns="http://www.w3.org/2000/svg">
<path d="M44.1106 12.8882H30.1106V8.88818H44.1106V12.8882ZM47.5106 32.8882C46.7106 35.4882 43.5106 38.8882 37.3106 38.8882C31.1106 38.8882 26.1106 35.4882 26.1106 27.4882C26.1106 19.6882 30.7106 15.6882 37.1106 15.6882C43.3106 15.6882 47.1106 19.2882 47.9106 24.4882C48.1106 25.4882 48.1106 26.8882 48.1106 28.8882H32.1106C32.3106 35.2882 39.1106 35.4882 41.3106 32.8882H47.5106ZM32.1106 24.8882H42.1106C41.9106 21.8882 39.9106 20.4882 37.1106 20.4882C34.3106 20.4882 32.7106 21.8882 32.1106 24.8882ZM13.1106 38.8882H0.110596V8.88818H14.1106C25.1106 9.08818 25.3106 19.6882 19.5106 22.6882C26.3106 25.2882 26.5106 38.8882 13.1106 38.8882ZM6.1106 20.8882H13.3106C18.3106 20.8882 19.1106 14.8882 12.7106 14.8882H6.1106V20.8882ZM12.9106 26.8882H6.1106V32.8882H12.7106C18.9106 32.8882 18.5106 26.8882 12.9106 26.8882Z" fill="white"/>
</svg>
